<mxfile host="Electron" agent="Mozilla/5.0 (Windows NT 10.0; Win64; x64) AppleWebKit/537.36 (KHTML, like Gecko) draw.io/26.0.4 Chrome/128.0.6613.186 Electron/32.2.5 Safari/537.36" version="26.0.4">
  <diagram name="Page-1" id="thyyxiPyC0K55dy1varB">
    <mxGraphModel dx="1975" dy="1140" grid="1" gridSize="10" guides="1" tooltips="1" connect="1" arrows="1" fold="1" page="1" pageScale="1" pageWidth="827" pageHeight="1169" math="0" shadow="0">
      <root>
        <mxCell id="0" />
        <mxCell id="1" parent="0" />
        <mxCell id="C-kt5MMKL2KP2r_FfIWk-170" value="Runner" style="swimlane;fontStyle=1;align=center;verticalAlign=top;childLayout=stackLayout;horizontal=1;startSize=38;horizontalStack=0;resizeParent=1;resizeParentMax=0;resizeLast=0;collapsible=0;marginBottom=0;" vertex="1" parent="1">
          <mxGeometry x="664" y="20" width="78" height="57" as="geometry" />
        </mxCell>
        <mxCell id="C-kt5MMKL2KP2r_FfIWk-171" style="line;strokeWidth=1;fillColor=none;align=left;verticalAlign=middle;spacingTop=-1;spacingLeft=3;spacingRight=3;rotatable=0;labelPosition=right;points=[];portConstraint=eastwest;strokeColor=inherit;" vertex="1" parent="C-kt5MMKL2KP2r_FfIWk-170">
          <mxGeometry y="38" width="78" height="19" as="geometry" />
        </mxCell>
        <mxCell id="C-kt5MMKL2KP2r_FfIWk-172" value="Menu" style="swimlane;fontStyle=1;align=center;verticalAlign=top;childLayout=stackLayout;horizontal=1;startSize=38;horizontalStack=0;resizeParent=1;resizeParentMax=0;resizeLast=0;collapsible=0;marginBottom=0;" vertex="1" parent="1">
          <mxGeometry x="671" y="154" width="64" height="57" as="geometry" />
        </mxCell>
        <mxCell id="C-kt5MMKL2KP2r_FfIWk-173" style="line;strokeWidth=1;fillColor=none;align=left;verticalAlign=middle;spacingTop=-1;spacingLeft=3;spacingRight=3;rotatable=0;labelPosition=right;points=[];portConstraint=eastwest;strokeColor=inherit;" vertex="1" parent="C-kt5MMKL2KP2r_FfIWk-172">
          <mxGeometry y="38" width="64" height="19" as="geometry" />
        </mxCell>
        <mxCell id="C-kt5MMKL2KP2r_FfIWk-174" value="FileParser" style="swimlane;fontStyle=1;align=center;verticalAlign=top;childLayout=stackLayout;horizontal=1;startSize=38;horizontalStack=0;resizeParent=1;resizeParentMax=0;resizeLast=0;collapsible=0;marginBottom=0;" vertex="1" parent="1">
          <mxGeometry x="267" y="300" width="99" height="57" as="geometry" />
        </mxCell>
        <mxCell id="C-kt5MMKL2KP2r_FfIWk-175" style="line;strokeWidth=1;fillColor=none;align=left;verticalAlign=middle;spacingTop=-1;spacingLeft=3;spacingRight=3;rotatable=0;labelPosition=right;points=[];portConstraint=eastwest;strokeColor=inherit;" vertex="1" parent="C-kt5MMKL2KP2r_FfIWk-174">
          <mxGeometry y="38" width="99" height="19" as="geometry" />
        </mxCell>
        <mxCell id="C-kt5MMKL2KP2r_FfIWk-176" value="TextSimplifier" style="swimlane;fontStyle=1;align=center;verticalAlign=top;childLayout=stackLayout;horizontal=1;startSize=38;horizontalStack=0;resizeParent=1;resizeParentMax=0;resizeLast=0;collapsible=0;marginBottom=0;" vertex="1" parent="1">
          <mxGeometry x="436" y="300" width="129" height="57" as="geometry" />
        </mxCell>
        <mxCell id="C-kt5MMKL2KP2r_FfIWk-177" style="line;strokeWidth=1;fillColor=none;align=left;verticalAlign=middle;spacingTop=-1;spacingLeft=3;spacingRight=3;rotatable=0;labelPosition=right;points=[];portConstraint=eastwest;strokeColor=inherit;" vertex="1" parent="C-kt5MMKL2KP2r_FfIWk-176">
          <mxGeometry y="38" width="129" height="19" as="geometry" />
        </mxCell>
        <mxCell id="C-kt5MMKL2KP2r_FfIWk-178" value="MessageUtil" style="swimlane;fontStyle=1;align=center;verticalAlign=top;childLayout=stackLayout;horizontal=1;startSize=38;horizontalStack=0;resizeParent=1;resizeParentMax=0;resizeLast=0;collapsible=0;marginBottom=0;" vertex="1" parent="1">
          <mxGeometry x="615" y="300" width="111" height="57" as="geometry" />
        </mxCell>
        <mxCell id="C-kt5MMKL2KP2r_FfIWk-179" style="line;strokeWidth=1;fillColor=none;align=left;verticalAlign=middle;spacingTop=-1;spacingLeft=3;spacingRight=3;rotatable=0;labelPosition=right;points=[];portConstraint=eastwest;strokeColor=inherit;" vertex="1" parent="C-kt5MMKL2KP2r_FfIWk-178">
          <mxGeometry y="38" width="111" height="19" as="geometry" />
        </mxCell>
        <mxCell id="C-kt5MMKL2KP2r_FfIWk-180" value="HelpUtil" style="swimlane;fontStyle=1;align=center;verticalAlign=top;childLayout=stackLayout;horizontal=1;startSize=38;horizontalStack=0;resizeParent=1;resizeParentMax=0;resizeLast=0;collapsible=0;marginBottom=0;" vertex="1" parent="1">
          <mxGeometry x="776" y="300" width="85" height="57" as="geometry" />
        </mxCell>
        <mxCell id="C-kt5MMKL2KP2r_FfIWk-181" style="line;strokeWidth=1;fillColor=none;align=left;verticalAlign=middle;spacingTop=-1;spacingLeft=3;spacingRight=3;rotatable=0;labelPosition=right;points=[];portConstraint=eastwest;strokeColor=inherit;" vertex="1" parent="C-kt5MMKL2KP2r_FfIWk-180">
          <mxGeometry y="38" width="85" height="19" as="geometry" />
        </mxCell>
        <mxCell id="C-kt5MMKL2KP2r_FfIWk-182" value="&lt;&lt;interface&gt;&gt;&#xa;SimilarityStrategy" style="swimlane;fontStyle=1;align=center;verticalAlign=top;childLayout=stackLayout;horizontal=1;startSize=60;horizontalStack=0;resizeParent=1;resizeParentMax=0;resizeLast=0;collapsible=0;marginBottom=0;" vertex="1" parent="1">
          <mxGeometry x="422" y="446" width="157" height="80" as="geometry" />
        </mxCell>
        <mxCell id="C-kt5MMKL2KP2r_FfIWk-183" style="line;strokeWidth=1;fillColor=none;align=left;verticalAlign=middle;spacingTop=-1;spacingLeft=3;spacingRight=3;rotatable=0;labelPosition=right;points=[];portConstraint=eastwest;strokeColor=inherit;" vertex="1" parent="C-kt5MMKL2KP2r_FfIWk-182">
          <mxGeometry y="60" width="157" height="20" as="geometry" />
        </mxCell>
        <mxCell id="C-kt5MMKL2KP2r_FfIWk-184" value="&lt;&lt;interface&gt;&gt;&#xa;OutputStrategy" style="swimlane;fontStyle=1;align=center;verticalAlign=top;childLayout=stackLayout;horizontal=1;startSize=60;horizontalStack=0;resizeParent=1;resizeParentMax=0;resizeLast=0;collapsible=0;marginBottom=0;" vertex="1" parent="1">
          <mxGeometry x="1169" y="288" width="138" height="80" as="geometry" />
        </mxCell>
        <mxCell id="C-kt5MMKL2KP2r_FfIWk-185" style="line;strokeWidth=1;fillColor=none;align=left;verticalAlign=middle;spacingTop=-1;spacingLeft=3;spacingRight=3;rotatable=0;labelPosition=right;points=[];portConstraint=eastwest;strokeColor=inherit;" vertex="1" parent="C-kt5MMKL2KP2r_FfIWk-184">
          <mxGeometry y="60" width="138" height="20" as="geometry" />
        </mxCell>
        <mxCell id="C-kt5MMKL2KP2r_FfIWk-186" value="&lt;&lt;enumeration&gt;&gt;&#xa;ConsoleColour" style="swimlane;fontStyle=1;align=center;verticalAlign=top;childLayout=stackLayout;horizontal=1;startSize=60;horizontalStack=0;resizeParent=1;resizeParentMax=0;resizeLast=0;collapsible=0;marginBottom=0;" vertex="1" parent="1">
          <mxGeometry x="752" y="446" width="132" height="80" as="geometry" />
        </mxCell>
        <mxCell id="C-kt5MMKL2KP2r_FfIWk-187" style="line;strokeWidth=1;fillColor=none;align=left;verticalAlign=middle;spacingTop=-1;spacingLeft=3;spacingRight=3;rotatable=0;labelPosition=right;points=[];portConstraint=eastwest;strokeColor=inherit;" vertex="1" parent="C-kt5MMKL2KP2r_FfIWk-186">
          <mxGeometry y="60" width="132" height="20" as="geometry" />
        </mxCell>
        <mxCell id="C-kt5MMKL2KP2r_FfIWk-188" value="&lt;&lt;enumeration&gt;&gt;&#xa;SimilarityCalculationType" style="swimlane;fontStyle=1;align=center;verticalAlign=top;childLayout=stackLayout;horizontal=1;startSize=60;horizontalStack=0;resizeParent=1;resizeParentMax=0;resizeLast=0;collapsible=0;marginBottom=0;" vertex="1" parent="1">
          <mxGeometry x="20" y="604" width="214" height="80" as="geometry" />
        </mxCell>
        <mxCell id="C-kt5MMKL2KP2r_FfIWk-189" style="line;strokeWidth=1;fillColor=none;align=left;verticalAlign=middle;spacingTop=-1;spacingLeft=3;spacingRight=3;rotatable=0;labelPosition=right;points=[];portConstraint=eastwest;strokeColor=inherit;" vertex="1" parent="C-kt5MMKL2KP2r_FfIWk-188">
          <mxGeometry y="60" width="214" height="20" as="geometry" />
        </mxCell>
        <mxCell id="C-kt5MMKL2KP2r_FfIWk-190" value="CosineSimilarity" style="swimlane;fontStyle=1;align=center;verticalAlign=top;childLayout=stackLayout;horizontal=1;startSize=38;horizontalStack=0;resizeParent=1;resizeParentMax=0;resizeLast=0;collapsible=0;marginBottom=0;" vertex="1" parent="1">
          <mxGeometry x="284" y="616" width="144" height="57" as="geometry" />
        </mxCell>
        <mxCell id="C-kt5MMKL2KP2r_FfIWk-191" style="line;strokeWidth=1;fillColor=none;align=left;verticalAlign=middle;spacingTop=-1;spacingLeft=3;spacingRight=3;rotatable=0;labelPosition=right;points=[];portConstraint=eastwest;strokeColor=inherit;" vertex="1" parent="C-kt5MMKL2KP2r_FfIWk-190">
          <mxGeometry y="38" width="144" height="19" as="geometry" />
        </mxCell>
        <mxCell id="C-kt5MMKL2KP2r_FfIWk-192" value="DotProductSimilarity" style="swimlane;fontStyle=1;align=center;verticalAlign=top;childLayout=stackLayout;horizontal=1;startSize=38;horizontalStack=0;resizeParent=1;resizeParentMax=0;resizeLast=0;collapsible=0;marginBottom=0;" vertex="1" parent="1">
          <mxGeometry x="479" y="616" width="179" height="57" as="geometry" />
        </mxCell>
        <mxCell id="C-kt5MMKL2KP2r_FfIWk-193" style="line;strokeWidth=1;fillColor=none;align=left;verticalAlign=middle;spacingTop=-1;spacingLeft=3;spacingRight=3;rotatable=0;labelPosition=right;points=[];portConstraint=eastwest;strokeColor=inherit;" vertex="1" parent="C-kt5MMKL2KP2r_FfIWk-192">
          <mxGeometry y="38" width="179" height="19" as="geometry" />
        </mxCell>
        <mxCell id="C-kt5MMKL2KP2r_FfIWk-194" value="EuclideanDistanceSimilarity" style="swimlane;fontStyle=1;align=center;verticalAlign=top;childLayout=stackLayout;horizontal=1;startSize=38;horizontalStack=0;resizeParent=1;resizeParentMax=0;resizeLast=0;collapsible=0;marginBottom=0;" vertex="1" parent="1">
          <mxGeometry x="708" y="616" width="232" height="57" as="geometry" />
        </mxCell>
        <mxCell id="C-kt5MMKL2KP2r_FfIWk-195" style="line;strokeWidth=1;fillColor=none;align=left;verticalAlign=middle;spacingTop=-1;spacingLeft=3;spacingRight=3;rotatable=0;labelPosition=right;points=[];portConstraint=eastwest;strokeColor=inherit;" vertex="1" parent="C-kt5MMKL2KP2r_FfIWk-194">
          <mxGeometry y="38" width="232" height="19" as="geometry" />
        </mxCell>
        <mxCell id="C-kt5MMKL2KP2r_FfIWk-196" value="ManhattanDistanceSimilarity" style="swimlane;fontStyle=1;align=center;verticalAlign=top;childLayout=stackLayout;horizontal=1;startSize=38;horizontalStack=0;resizeParent=1;resizeParentMax=0;resizeLast=0;collapsible=0;marginBottom=0;" vertex="1" parent="1">
          <mxGeometry x="990" y="616" width="237" height="57" as="geometry" />
        </mxCell>
        <mxCell id="C-kt5MMKL2KP2r_FfIWk-197" style="line;strokeWidth=1;fillColor=none;align=left;verticalAlign=middle;spacingTop=-1;spacingLeft=3;spacingRight=3;rotatable=0;labelPosition=right;points=[];portConstraint=eastwest;strokeColor=inherit;" vertex="1" parent="C-kt5MMKL2KP2r_FfIWk-196">
          <mxGeometry y="38" width="237" height="19" as="geometry" />
        </mxCell>
        <mxCell id="C-kt5MMKL2KP2r_FfIWk-198" value="FileAndConsoleOutput" style="swimlane;fontStyle=1;align=center;verticalAlign=top;childLayout=stackLayout;horizontal=1;startSize=38;horizontalStack=0;resizeParent=1;resizeParentMax=0;resizeLast=0;collapsible=0;marginBottom=0;" vertex="1" parent="1">
          <mxGeometry x="934" y="458" width="191" height="57" as="geometry" />
        </mxCell>
        <mxCell id="C-kt5MMKL2KP2r_FfIWk-199" style="line;strokeWidth=1;fillColor=none;align=left;verticalAlign=middle;spacingTop=-1;spacingLeft=3;spacingRight=3;rotatable=0;labelPosition=right;points=[];portConstraint=eastwest;strokeColor=inherit;" vertex="1" parent="C-kt5MMKL2KP2r_FfIWk-198">
          <mxGeometry y="38" width="191" height="19" as="geometry" />
        </mxCell>
        <mxCell id="C-kt5MMKL2KP2r_FfIWk-200" value="JsonOutputStrategy" style="swimlane;fontStyle=1;align=center;verticalAlign=top;childLayout=stackLayout;horizontal=1;startSize=38;horizontalStack=0;resizeParent=1;resizeParentMax=0;resizeLast=0;collapsible=0;marginBottom=0;" vertex="1" parent="1">
          <mxGeometry x="1175" y="458" width="172" height="57" as="geometry" />
        </mxCell>
        <mxCell id="C-kt5MMKL2KP2r_FfIWk-201" style="line;strokeWidth=1;fillColor=none;align=left;verticalAlign=middle;spacingTop=-1;spacingLeft=3;spacingRight=3;rotatable=0;labelPosition=right;points=[];portConstraint=eastwest;strokeColor=inherit;" vertex="1" parent="C-kt5MMKL2KP2r_FfIWk-200">
          <mxGeometry y="38" width="172" height="19" as="geometry" />
        </mxCell>
        <mxCell id="C-kt5MMKL2KP2r_FfIWk-202" value="" style="curved=1;dashed=1;startArrow=none;endArrow=open;endSize=12;exitX=0.5;exitY=1;entryX=0.5;entryY=0;rounded=0;" edge="1" parent="1" source="C-kt5MMKL2KP2r_FfIWk-170" target="C-kt5MMKL2KP2r_FfIWk-172">
          <mxGeometry relative="1" as="geometry">
            <Array as="points" />
          </mxGeometry>
        </mxCell>
        <mxCell id="C-kt5MMKL2KP2r_FfIWk-203" value="" style="curved=1;dashed=1;startArrow=none;endArrow=open;endSize=12;exitX=0;exitY=0.57;entryX=0.5;entryY=0;rounded=0;" edge="1" parent="1" source="C-kt5MMKL2KP2r_FfIWk-172" target="C-kt5MMKL2KP2r_FfIWk-174">
          <mxGeometry relative="1" as="geometry">
            <Array as="points">
              <mxPoint x="340" y="260" />
            </Array>
          </mxGeometry>
        </mxCell>
        <mxCell id="C-kt5MMKL2KP2r_FfIWk-204" value="" style="curved=1;dashed=1;startArrow=none;endArrow=open;endSize=12;exitX=0;exitY=0.63;entryX=0.5;entryY=0;rounded=0;" edge="1" parent="1" source="C-kt5MMKL2KP2r_FfIWk-172" target="C-kt5MMKL2KP2r_FfIWk-176">
          <mxGeometry relative="1" as="geometry">
            <Array as="points">
              <mxPoint x="500" y="263" />
            </Array>
          </mxGeometry>
        </mxCell>
        <mxCell id="C-kt5MMKL2KP2r_FfIWk-205" value="" style="curved=1;dashed=1;startArrow=none;endArrow=open;endSize=12;exitX=0.18;exitY=1;entryX=0.5;entryY=0;rounded=0;" edge="1" parent="1" source="C-kt5MMKL2KP2r_FfIWk-172" target="C-kt5MMKL2KP2r_FfIWk-178">
          <mxGeometry relative="1" as="geometry">
            <Array as="points">
              <mxPoint x="670" y="263" />
            </Array>
          </mxGeometry>
        </mxCell>
        <mxCell id="C-kt5MMKL2KP2r_FfIWk-206" value="" style="curved=1;dashed=1;startArrow=none;endArrow=open;endSize=12;exitX=1;exitY=0.72;entryX=0.5;entryY=0;rounded=0;" edge="1" parent="1" source="C-kt5MMKL2KP2r_FfIWk-172" target="C-kt5MMKL2KP2r_FfIWk-180">
          <mxGeometry relative="1" as="geometry">
            <Array as="points">
              <mxPoint x="818" y="263" />
            </Array>
          </mxGeometry>
        </mxCell>
        <mxCell id="C-kt5MMKL2KP2r_FfIWk-207" value="" style="curved=1;dashed=1;startArrow=none;endArrow=open;endSize=12;exitX=0;exitY=0.58;entryX=0.07;entryY=0;rounded=0;" edge="1" parent="1" source="C-kt5MMKL2KP2r_FfIWk-172" target="C-kt5MMKL2KP2r_FfIWk-182">
          <mxGeometry relative="1" as="geometry">
            <Array as="points">
              <mxPoint x="401" y="263" />
              <mxPoint x="401" y="421" />
            </Array>
          </mxGeometry>
        </mxCell>
        <mxCell id="C-kt5MMKL2KP2r_FfIWk-208" value="" style="curved=1;dashed=1;startArrow=none;endArrow=open;endSize=12;exitX=1;exitY=0.55;entryX=0.5;entryY=0;rounded=0;" edge="1" parent="1" source="C-kt5MMKL2KP2r_FfIWk-172" target="C-kt5MMKL2KP2r_FfIWk-184">
          <mxGeometry relative="1" as="geometry">
            <Array as="points">
              <mxPoint x="1220" y="263" />
            </Array>
          </mxGeometry>
        </mxCell>
        <mxCell id="C-kt5MMKL2KP2r_FfIWk-209" value="" style="curved=1;dashed=1;startArrow=none;endArrow=open;endSize=12;exitX=0.5;exitY=1;entryX=0.5;entryY=0;rounded=0;" edge="1" parent="1" source="C-kt5MMKL2KP2r_FfIWk-176" target="C-kt5MMKL2KP2r_FfIWk-182">
          <mxGeometry relative="1" as="geometry">
            <Array as="points" />
          </mxGeometry>
        </mxCell>
        <mxCell id="C-kt5MMKL2KP2r_FfIWk-210" value="" style="curved=1;dashed=1;startArrow=none;endArrow=open;endSize=12;exitX=0.5;exitY=1;entryX=0;entryY=0.17;rounded=0;" edge="1" parent="1" source="C-kt5MMKL2KP2r_FfIWk-178" target="C-kt5MMKL2KP2r_FfIWk-186">
          <mxGeometry relative="1" as="geometry">
            <Array as="points">
              <mxPoint x="670" y="421" />
            </Array>
          </mxGeometry>
        </mxCell>
        <mxCell id="C-kt5MMKL2KP2r_FfIWk-211" value="" style="curved=1;dashed=1;startArrow=none;endArrow=open;endSize=12;exitX=0;exitY=0.65;entryX=0.5;entryY=0;rounded=0;" edge="1" parent="1" source="C-kt5MMKL2KP2r_FfIWk-182" target="C-kt5MMKL2KP2r_FfIWk-188">
          <mxGeometry relative="1" as="geometry">
            <Array as="points">
              <mxPoint x="140" y="580" />
            </Array>
          </mxGeometry>
        </mxCell>
        <mxCell id="C-kt5MMKL2KP2r_FfIWk-212" value="" style="curved=1;dashed=1;startArrow=none;endArrow=open;endSize=12;exitX=0.5;exitY=1;entryX=0.5;entryY=0;rounded=0;" edge="1" parent="1" source="C-kt5MMKL2KP2r_FfIWk-180" target="C-kt5MMKL2KP2r_FfIWk-186">
          <mxGeometry relative="1" as="geometry">
            <Array as="points" />
          </mxGeometry>
        </mxCell>
        <mxCell id="C-kt5MMKL2KP2r_FfIWk-213" value="" style="curved=1;startArrow=block;startSize=16;startFill=0;endArrow=none;exitX=0;exitY=0.9;entryX=0.5;entryY=0;rounded=0;" edge="1" parent="1" source="C-kt5MMKL2KP2r_FfIWk-182" target="C-kt5MMKL2KP2r_FfIWk-190">
          <mxGeometry relative="1" as="geometry">
            <Array as="points">
              <mxPoint x="357" y="579" />
            </Array>
          </mxGeometry>
        </mxCell>
        <mxCell id="C-kt5MMKL2KP2r_FfIWk-214" value="" style="curved=1;startArrow=block;startSize=16;startFill=0;endArrow=none;exitX=0.8;exitY=1;entryX=0.5;entryY=0;rounded=0;" edge="1" parent="1" source="C-kt5MMKL2KP2r_FfIWk-182" target="C-kt5MMKL2KP2r_FfIWk-192">
          <mxGeometry relative="1" as="geometry">
            <Array as="points">
              <mxPoint x="568" y="579" />
            </Array>
          </mxGeometry>
        </mxCell>
        <mxCell id="C-kt5MMKL2KP2r_FfIWk-215" value="" style="curved=1;startArrow=block;startSize=16;startFill=0;endArrow=none;exitX=1;exitY=0.68;entryX=0.5;entryY=0;rounded=0;entryDx=0;entryDy=0;" edge="1" parent="1" target="C-kt5MMKL2KP2r_FfIWk-194">
          <mxGeometry relative="1" as="geometry">
            <Array as="points">
              <mxPoint x="827" y="593.6" />
            </Array>
            <mxPoint x="581.9999999999995" y="515.0000000000001" as="sourcePoint" />
            <mxPoint x="827" y="630.6" as="targetPoint" />
          </mxGeometry>
        </mxCell>
        <mxCell id="C-kt5MMKL2KP2r_FfIWk-216" value="" style="curved=1;startArrow=block;startSize=16;startFill=0;endArrow=none;exitX=1;exitY=0.59;entryX=0.5;entryY=0;rounded=0;" edge="1" parent="1" source="C-kt5MMKL2KP2r_FfIWk-182" target="C-kt5MMKL2KP2r_FfIWk-196">
          <mxGeometry relative="1" as="geometry">
            <Array as="points">
              <mxPoint x="1108" y="579" />
            </Array>
          </mxGeometry>
        </mxCell>
        <mxCell id="C-kt5MMKL2KP2r_FfIWk-217" value="" style="curved=1;startArrow=block;startSize=16;startFill=0;endArrow=none;exitX=0;exitY=0.74;entryX=0.5;entryY=0;rounded=0;" edge="1" parent="1" source="C-kt5MMKL2KP2r_FfIWk-184" target="C-kt5MMKL2KP2r_FfIWk-198">
          <mxGeometry relative="1" as="geometry">
            <Array as="points">
              <mxPoint x="1030" y="421" />
            </Array>
          </mxGeometry>
        </mxCell>
        <mxCell id="C-kt5MMKL2KP2r_FfIWk-218" value="" style="curved=1;startArrow=block;startSize=16;startFill=0;endArrow=none;exitX=0.62;exitY=1;entryX=0.5;entryY=0;rounded=0;" edge="1" parent="1" source="C-kt5MMKL2KP2r_FfIWk-184" target="C-kt5MMKL2KP2r_FfIWk-200">
          <mxGeometry relative="1" as="geometry">
            <Array as="points">
              <mxPoint x="1261" y="421" />
            </Array>
          </mxGeometry>
        </mxCell>
      </root>
    </mxGraphModel>
  </diagram>
</mxfile>
